<svg width="381" height="288" viewBox="0 0 381 288" fill="none" xmlns="http://www.w3.org/2000/svg">
<path d="M182.61 63.2854L215.747 7.92416L231.546 52.2169L232.037 53.5925L233.142 52.6376L289.65 3.80345L275.309 56.6432L274.731 58.7725L276.714 57.8035L346.308 23.7796L304.755 76.3554L303.081 78.4745L305.732 77.9569L376.535 64.1331L314.648 107.805L312.586 109.259L315.085 109.612L375.422 118.129L303.299 145.437L301.593 146.083L303.055 147.173L342.845 176.87L272.744 182.702L271.563 182.8L271.858 183.948L283.78 230.298L228.37 213.193L227.443 212.906L227.129 213.825L208.398 268.707L177.908 231.818L177.153 230.905L176.38 231.802L130.457 285.087L129.82 235.441L129.797 233.617L128.272 234.618L63.7864 276.915L92.3612 223.095L93.5443 220.867L91.1559 221.679L19.4485 246.078L72.2493 196.922L74.2263 195.082L71.5274 195.191L4.5685 197.905L73.0012 161.6L74.9503 160.566L72.8879 159.782L21.7104 140.326L94.4328 123.313L95.8549 122.981L95.0305 121.775L68.4836 82.9584L132.749 88.6905L133.768 88.7814L133.836 87.7606L137.273 35.9375L181.219 63.6179L182.084 64.1631L182.61 63.2854Z" stroke="#EDE7D7" stroke-width="2"/>
</svg>
