<svg
    width="351"
    height="325"
    viewBox="0 0 351 325"
    fill="none"
    xmlns="http://www.w3.org/2000/svg"
    >
    <path
        d="M25.1269 36.55L93.5207 70.2612L93.5666 70.2838C94.1103 70.5518 94.5858 70.7863 94.9743 70.9312C95.3473 71.0705 95.8791 71.2259 96.4254 71.0407C96.8971 70.8808 97.2922 70.5505 97.5333 70.1147C97.8125 69.6099 97.7539 69.059 97.683 68.6672C97.6093 68.2592 97.463 67.7497 97.2957 67.1672L97.2815 67.1178L79.2721 4.38955C78.9822 3.37994 78.7841 2.68662 78.6868 2.19424C78.6779 2.14909 78.6702 2.10745 78.6636 2.06909C78.694 2.09333 78.7269 2.1201 78.7621 2.14965C79.1469 2.47193 79.6593 2.97929 80.4047 3.71929L137.404 60.3004L137.438 60.334C137.768 60.6613 138.068 60.9596 138.334 61.1741C138.607 61.3943 138.985 61.6468 139.475 61.6845C139.92 61.7189 140.363 61.6034 140.735 61.3564C141.145 61.0845 141.351 60.6799 141.482 60.3545C141.61 60.0376 141.727 59.6307 141.855 59.1843L141.868 59.1384L157.025 6.37346C157.239 5.63056 157.379 5.14621 157.509 4.81705C157.519 4.79329 157.528 4.77144 157.536 4.75139C157.548 4.76986 157.56 4.79003 157.573 4.81203C157.753 5.1167 157.968 5.57305 158.295 6.2733L189.754 73.5872C189.898 73.8955 190.035 74.1926 190.174 74.4271C190.319 74.6722 190.522 74.9508 190.848 75.1517C191.16 75.3442 191.52 75.447 191.887 75.4489C192.27 75.4508 192.589 75.3214 192.842 75.19C193.074 75.0692 193.336 74.8988 193.609 74.721L193.643 74.6994L240.538 44.2094C241.036 43.8851 241.345 43.6859 241.577 43.5673C241.59 43.5606 241.602 43.5544 241.613 43.5488C241.614 43.5616 241.615 43.5753 241.616 43.5901C241.631 43.8495 241.615 44.2167 241.588 44.8109L238.748 106.176C238.734 106.485 238.719 106.785 238.731 107.038C238.743 107.304 238.788 107.619 238.958 107.931C239.123 108.233 239.364 108.488 239.657 108.67C239.958 108.858 240.27 108.92 240.535 108.948C240.776 108.973 241.064 108.976 241.359 108.979L241.397 108.98L309.558 109.704C310.216 109.711 310.631 109.717 310.923 109.749C310.941 109.751 310.958 109.753 310.973 109.756C310.964 109.769 310.954 109.782 310.944 109.797C310.772 110.034 310.496 110.345 310.058 110.837L274.444 150.769L274.415 150.802C274.159 151.089 273.918 151.358 273.744 151.599C273.559 151.855 273.359 152.194 273.321 152.625C273.286 153.028 273.374 153.433 273.574 153.786C273.788 154.162 274.11 154.387 274.385 154.543C274.644 154.689 274.974 154.834 275.327 154.989L275.367 155.007L347.305 186.586C348.143 186.954 348.705 187.202 349.082 187.41C349.113 187.427 349.141 187.443 349.167 187.458C349.138 187.467 349.107 187.476 349.073 187.486C348.659 187.601 348.054 187.713 347.154 187.878L288.794 198.565L288.744 198.575C288.207 198.673 287.73 198.76 287.362 198.868C286.997 198.974 286.518 199.156 286.196 199.594C285.912 199.979 285.776 200.453 285.812 200.931C285.853 201.472 286.163 201.881 286.415 202.164C286.671 202.451 287.029 202.778 287.432 203.147L287.469 203.18L346.128 256.766C346.975 257.539 347.563 258.077 347.94 258.482C347.977 258.522 348.01 258.558 348.04 258.592C347.995 258.584 347.947 258.575 347.894 258.565C347.352 258.456 346.585 258.237 345.482 257.921L276.972 238.313L276.922 238.299C276.318 238.126 275.792 237.976 275.374 237.9C274.976 237.828 274.41 237.766 273.898 238.056C273.459 238.305 273.131 238.711 272.978 239.192C272.8 239.753 272.978 240.293 273.131 240.667C273.292 241.061 273.548 241.544 273.842 242.099L273.866 242.145L307.247 305.105C307.784 306.119 308.157 306.823 308.376 307.331C308.397 307.381 308.416 307.426 308.433 307.468C308.394 307.446 308.351 307.421 308.305 307.393C307.831 307.108 307.182 306.644 306.25 305.976L241.672 259.696L241.631 259.666C241.187 259.349 240.793 259.066 240.459 258.875C240.13 258.687 239.666 258.469 239.128 258.541C238.653 258.604 238.217 258.836 237.899 259.194C237.538 259.599 237.459 260.106 237.43 260.484C237.402 260.867 237.415 261.352 237.43 261.897L237.431 261.948L239.07 321.256C239.096 322.171 239.112 322.785 239.084 323.214C239.082 323.25 239.08 323.283 239.077 323.313C239.057 323.29 239.035 323.266 239.012 323.239C238.731 322.914 238.371 322.415 237.838 321.671L192.036 257.84L192.01 257.804C191.786 257.491 191.575 257.198 191.379 256.975C191.169 256.738 190.882 256.469 190.47 256.339C190.084 256.216 189.669 256.214 189.281 256.332C188.868 256.458 188.578 256.724 188.366 256.958C188.166 257.179 187.953 257.469 187.725 257.779L187.699 257.815L156.014 300.931C155.624 301.461 155.377 301.796 155.181 302.013C155.168 302.027 155.157 302.039 155.146 302.05C155.141 302.036 155.135 302.02 155.129 302.002C155.037 301.724 154.945 301.319 154.802 300.676L139.968 234.145L139.96 234.109C139.896 233.82 139.833 233.54 139.759 233.309C139.677 233.055 139.551 232.763 139.305 232.507C139.066 232.258 138.767 232.076 138.437 231.977C138.097 231.875 137.779 231.897 137.516 231.94C137.276 231.979 136.998 232.051 136.712 232.126L136.676 232.135L77.232 247.63C76.6563 247.78 76.3004 247.872 76.0435 247.911C76.029 247.913 76.0153 247.915 76.0026 247.917C76.0057 247.904 76.0092 247.891 76.0131 247.877C76.0811 247.626 76.2121 247.283 76.4259 246.728L96.5356 194.532L96.5498 194.495C96.6671 194.191 96.7795 193.899 96.8496 193.647C96.9258 193.372 96.9862 193.033 96.905 192.659C96.8271 192.3 96.652 191.97 96.3989 191.704C96.1349 191.427 95.8202 191.286 95.5504 191.195C95.3024 191.111 94.9979 191.041 94.6803 190.967L94.6417 190.958L22.2697 174.132C21.5169 173.957 21.026 173.842 20.6906 173.729C20.6663 173.72 20.6441 173.713 20.6236 173.705C20.6415 173.693 20.661 173.679 20.6823 173.665C20.9773 173.47 21.4221 173.232 22.1046 172.869L70.5829 147.106L70.625 147.084C71.0352 146.866 71.409 146.667 71.6927 146.477C71.9839 146.281 72.3368 145.995 72.518 145.538C72.6825 145.123 72.7036 144.665 72.5778 144.237C72.4393 143.766 72.114 143.448 71.842 143.227C71.577 143.011 71.2228 142.779 70.8343 142.524L70.7946 142.498L3.62949 98.462C2.75106 97.886 2.14853 97.4899 1.75351 97.1803C1.71729 97.1519 1.68429 97.1254 1.65427 97.1006C1.69316 97.0991 1.73549 97.098 1.78151 97.0973C2.28337 97.0905 3.00269 97.1406 4.05045 97.215L69.1491 101.834L69.2005 101.838C69.805 101.88 70.3337 101.918 70.7481 101.906C71.1461 101.894 71.6971 101.837 72.1331 101.459C72.5096 101.133 72.7507 100.678 72.8095 100.183C72.8774 99.6105 72.6152 99.1226 72.4016 98.7865C72.1793 98.4365 71.8514 98.0199 71.4766 97.5435L71.4449 97.5033L24.2919 37.5804C23.5607 36.6512 23.0515 36.0029 22.7343 35.527C22.7029 35.4798 22.6745 35.436 22.649 35.3956C22.6939 35.4121 22.7425 35.4308 22.7953 35.4518C23.3266 35.6635 24.0663 36.0272 25.1269 36.55ZM78.6297 1.70459C78.6298 1.70469 78.6296 1.70654 78.629 1.70994C78.6294 1.70619 78.6297 1.70447 78.6297 1.70459ZM78.3653 1.86589C78.3622 1.86478 78.3605 1.86406 78.3604 1.86395C78.3603 1.86384 78.362 1.86444 78.3653 1.86589ZM308.557 307.864C308.557 307.866 308.557 307.864 308.557 307.857C308.557 307.86 308.557 307.863 308.557 307.864ZM1.39074 96.8465C1.39083 96.8465 1.3919 96.848 1.3937 96.851C1.39156 96.848 1.39066 96.8465 1.39074 96.8465ZM1.2957 97.1412C1.29229 97.1425 1.29051 97.1431 1.29065 97.143C1.29078 97.1428 1.2924 97.1422 1.2957 97.1412ZM22.4477 35.0122C22.4479 35.0123 22.4487 35.015 22.4498 35.02C22.4481 35.0146 22.4476 35.012 22.4477 35.0122ZM22.2402 35.2785C22.2351 35.2785 22.2323 35.2782 22.2322 35.2781C22.2321 35.278 22.2346 35.278 22.2402 35.2785Z"
        stroke="#EF4230"
        strokeWidth="2"
    />
</svg>