<svg width="170" height="28" viewBox="0 0 170 28" fill="none" xmlns="http://www.w3.org/2000/svg">
<path d="M15 0L18.3677 10.3647H29.2658L20.4491 16.7705L23.8168 27.1353L15 20.7295L6.18322 27.1353L9.55093 16.7705L0.734152 10.3647H11.6323L15 0Z" fill="#EDE7D7"/>
<path d="M50 0L53.3677 10.3647H64.2658L55.4491 16.7705L58.8168 27.1353L50 20.7295L41.1832 27.1353L44.5509 16.7705L35.7342 10.3647H46.6323L50 0Z" fill="#EDE7D7"/>
<path d="M85 0L88.3677 10.3647H99.2658L90.4491 16.7705L93.8168 27.1353L85 20.7295L76.1832 27.1353L79.5509 16.7705L70.7342 10.3647H81.6323L85 0Z" fill="#EDE7D7"/>
<path d="M120 0L123.368 10.3647H134.266L125.449 16.7705L128.817 27.1353L120 20.7295L111.183 27.1353L114.551 16.7705L105.734 10.3647H116.632L120 0Z" fill="#EDE7D7"/>
<path d="M155 0L158.368 10.3647H169.266L160.449 16.7705L163.817 27.1353L155 20.7295L146.183 27.1353L149.551 16.7705L140.734 10.3647H151.632L155 0Z" fill="#EDE7D7"/>
</svg>
